<svg xmlns="http://www.w3.org/2000/svg" xmlns:xlink="http://www.w3.org/1999/xlink" width="1200" height="630" viewBox="0 0 1200 630"><rect x="0" y="0" width="1200" height="630" rx="0" fill="#F3F4EF" /><rect x="0" y="0" width="1200" height="106" rx="0" fill="#121714" /><g transform="translate(68 29) scale(2)"><path d="M2 11a10.05 10.05 0 0 1 20 0H2Zm0 2h20A10.05 10.05 0 0 1 2 13Z" fill="#F3F4EF"/></g><text x="130" y="66" font-family="Token Horizon Sans" font-size="30" font-weight="600" fill="#F3F4EF" letter-spacing="-1">Token Horizon</text><text x="940" y="62" font-family="JetBrains Mono" font-size="13" letter-spacing="1.5" fill="#A5B8AB">token-horizon.dev</text><text x="72" y="182" font-family="JetBrains Mono" font-size="12" letter-spacing="1.5" fill="#235E43">FROM THE TOKEN HORIZON BLOG</text><text x="68" y="278" font-family="Token Horizon Sans" font-size="65" font-weight="600" fill="#121714" letter-spacing="-2.8">A clearer view</text><text x="68" y="348" font-family="Token Horizon Sans" font-size="65" font-weight="600" fill="#121714" letter-spacing="-2.8">of AI.</text><text x="72" y="451" font-family="Token Horizon Sans" font-size="22" font-weight="400" fill="#56635A" >Product updates and engineering notes.</text><text x="72" y="482" font-family="Token Horizon Sans" font-size="22" font-weight="400" fill="#56635A" >Ideas for more observable AI workflows.</text><rect x="722" y="170" width="406" height="330" rx="12" fill="#121714" /><text x="750" y="201" font-family="JetBrains Mono" font-size="10" letter-spacing="1.5" fill="#CDD3CC">NOTES FROM THE HORIZON</text><rect x="812" y="249" width="206" height="189" rx="5" fill="#35423A" /><rect x="801" y="236" width="206" height="189" rx="5" fill="#E1E8E1" /><g transform="translate(824 259) scale(1.8333333333333333)"><path d="M2 11a10.05 10.05 0 0 1 20 0H2Zm0 2h20A10.05 10.05 0 0 1 2 13Z" fill="#235E43"/></g><rect x="824" y="324" width="127" height="7" rx="3" fill="#121714" /><rect x="824" y="342" width="156" height="5" rx="2" fill="#849388" /><rect x="824" y="357" width="147" height="5" rx="2" fill="#849388" /><rect x="824" y="372" width="114" height="5" rx="2" fill="#849388" /><text x="750" y="475" font-family="Token Horizon Sans" font-size="18" font-weight="400" fill="#B8C7BD" >Build. Measure. Understand.</text><path d="M72 542L1128 542" stroke="#CDD3CC" /><text x="72" y="584" font-family="JetBrains Mono" font-size="12" letter-spacing="1.5" fill="#56635A">UPDATES · ENGINEERING · OBSERVABILITY</text><g transform="translate(1098 559) scale(1.3333333333333333)"><path d="M2 11a10.05 10.05 0 0 1 20 0H2Zm0 2h20A10.05 10.05 0 0 1 2 13Z" fill="#235E43"/></g></svg>
