<svg xmlns="http://www.w3.org/2000/svg" xmlns:xlink="http://www.w3.org/1999/xlink" width="1200" height="630" viewBox="0 0 1200 630"><rect x="0" y="0" width="1200" height="630" rx="0" fill="#F3F4EF" /><rect x="0" y="0" width="1200" height="106" rx="0" fill="#121714" /><g transform="translate(68 29) scale(2)"><path d="M2 11a10.05 10.05 0 0 1 20 0H2Zm0 2h20A10.05 10.05 0 0 1 2 13Z" fill="#F3F4EF"/></g><text x="130" y="66" font-family="Token Horizon Sans" font-size="30" font-weight="600" fill="#F3F4EF" letter-spacing="-1">Token Horizon</text><text x="940" y="62" font-family="JetBrains Mono" font-size="13" letter-spacing="1.5" fill="#A5B8AB">token-horizon.dev</text><text x="72" y="182" font-family="JetBrains Mono" font-size="12" letter-spacing="1.5" fill="#235E43">THE TOKEN HORIZON GUIDE</text><text x="68" y="278" font-family="Token Horizon Sans" font-size="65" font-weight="600" fill="#121714" letter-spacing="-2.8">Your next token,</text><text x="68" y="348" font-family="Token Horizon Sans" font-size="65" font-weight="600" fill="#121714" letter-spacing="-2.8">accounted for.</text><text x="72" y="451" font-family="Token Horizon Sans" font-size="22" font-weight="400" fill="#56635A" >Install, configure and connect your tools.</text><text x="72" y="482" font-family="Token Horizon Sans" font-size="22" font-weight="400" fill="#56635A" >Understand your usage and your data.</text><rect x="722" y="170" width="406" height="330" rx="12" fill="#121714" /><text x="750" y="201" font-family="JetBrains Mono" font-size="10" letter-spacing="1.5" fill="#CDD3CC">FROM INSTALL TO INTEGRATION</text><text x="750" y="248" font-family="JetBrains Mono" font-size="12" letter-spacing="1.5" fill="#B6F2CF">01</text><text x="785" y="249" font-family="Token Horizon Sans" font-size="21" font-weight="600" fill="#F3F4EF" >Install</text><text x="785" y="273" font-family="JetBrains Mono" font-size="12" fill="#A5B8AB">brew install --cask token-horizon</text><path d="M750 290L1100 290" stroke="#35423A" /><text x="750" y="328" font-family="JetBrains Mono" font-size="12" letter-spacing="1.5" fill="#B6F2CF">02</text><text x="785" y="329" font-family="Token Horizon Sans" font-size="21" font-weight="600" fill="#F3F4EF" >Inspect</text><text x="785" y="353" font-family="JetBrains Mono" font-size="12" fill="#A5B8AB">th stats</text><path d="M750 370L1100 370" stroke="#35423A" /><text x="750" y="408" font-family="JetBrains Mono" font-size="12" letter-spacing="1.5" fill="#B6F2CF">03</text><text x="785" y="409" font-family="Token Horizon Sans" font-size="21" font-weight="600" fill="#F3F4EF" >Connect</text><text x="785" y="433" font-family="JetBrains Mono" font-size="12" fill="#A5B8AB">Local API + MCP tools</text><path d="M72 542L1128 542" stroke="#CDD3CC" /><text x="72" y="584" font-family="JetBrains Mono" font-size="12" letter-spacing="1.5" fill="#56635A">INSTALL · LOCAL API · MCP · GATEWAY</text><g transform="translate(1098 559) scale(1.3333333333333333)"><path d="M2 11a10.05 10.05 0 0 1 20 0H2Zm0 2h20A10.05 10.05 0 0 1 2 13Z" fill="#235E43"/></g></svg>
